<?xml version="1.0" encoding="UTF-8"?>
<svg xmlns="http://www.w3.org/2000/svg" xmlns:xlink="http://www.w3.org/1999/xlink" viewBox="0 0 100 100" width="100px" height="100px">
<g id="surface1264126">
<path style=" stroke:none;fill-rule:nonzero;fill:rgb(27.843139%,69.803923%,61.56863%);fill-opacity:1;" d="M 71.019531 52.105469 C 70.8125 51.625 70.667969 51.3125 70.644531 51.230469 L 70.644531 51.207031 C 69.3125 48.1875 68.042969 45.355469 66.8125 42.75 C 66.644531 42.375 66.457031 42 66.292969 41.625 C 66.082031 41.167969 65.875 40.730469 65.667969 40.292969 C 60.625 29.5 56.8125 22.605469 54.332031 19.707031 C 53.769531 19.042969 52.980469 18.75 52.082031 18.75 C 51.1875 18.75 50.394531 19.042969 49.832031 19.707031 C 47.355469 22.605469 43.542969 29.5 38.5 40.292969 C 38.292969 40.730469 38.082031 41.167969 37.875 41.625 C 37.707031 42 37.519531 42.375 37.355469 42.75 C 36.125 45.355469 34.855469 48.1875 33.519531 51.207031 L 33.519531 51.230469 C 33.5 51.3125 33.355469 51.625 33.144531 52.105469 C 32.011719 54.667969 28.742188 62.128906 27.261719 65.453125 L 29.878906 64.417969 C 33.109375 63.089844 36.394531 61.851562 39.648438 60.695312 L 39.714844 60.667969 C 39.984375 60 41.292969 56.667969 41.542969 56.019531 C 42.167969 54.457031 42.769531 52.957031 43.355469 51.519531 C 43.417969 51.394531 43.457031 51.25 43.519531 51.125 C 44.144531 49.582031 44.75 48.105469 45.332031 46.707031 C 45.457031 46.394531 45.605469 46.105469 45.730469 45.792969 C 45.9375 45.3125 46.125 44.855469 46.3125 44.394531 C 46.625 43.667969 46.917969 42.980469 47.1875 42.3125 C 47.542969 41.5 47.875 40.730469 48.207031 39.980469 C 48.769531 38.707031 49.269531 37.5625 49.707031 36.5625 C 49.875 36.167969 50.0625 35.792969 50.207031 35.4375 C 50.730469 34.292969 51.144531 33.375 51.480469 32.667969 C 51.777344 32 51.980469 31.566406 52.082031 31.34375 C 52.1875 31.566406 52.390625 32.003906 52.6875 32.667969 C 53.019531 33.375 53.4375 34.292969 53.957031 35.4375 C 54.105469 35.792969 54.292969 36.167969 54.457031 36.5625 C 54.894531 37.5625 55.394531 38.707031 55.957031 39.980469 C 56.292969 40.730469 56.625 41.5 56.980469 42.3125 C 57.25 42.980469 57.542969 43.667969 57.855469 44.394531 C 58.042969 44.855469 58.230469 45.3125 58.4375 45.792969 C 58.5625 46.105469 58.707031 46.394531 58.832031 46.707031 C 59.417969 48.105469 60.019531 49.582031 60.644531 51.125 C 60.707031 51.25 60.75 51.394531 60.8125 51.519531 C 61.394531 52.957031 62 54.457031 62.625 56.019531 C 62.875 56.667969 64.179688 60 64.453125 60.667969 L 64.519531 60.695312 C 67.773438 61.851562 71.058594 63.089844 74.289062 64.417969 L 76.902344 65.453125 C 75.425781 62.128906 72.15625 54.667969 71.019531 52.105469 Z M 71.019531 52.105469 "/>
<path style=" stroke:none;fill-rule:nonzero;fill:rgb(16.862746%,78.823531%,42.352942%);fill-opacity:1;" d="M 37.105469 72.125 C 35.582031 79.75 35.417969 87.5 35.417969 87.5 L 29.167969 91.667969 L 18.75 91.667969 L 24.9375 72.125 Z M 37.105469 72.125 "/>
<path style=" stroke:none;fill-rule:nonzero;fill:rgb(14.901961%,62.352943%,53.725493%);fill-opacity:1;" d="M 35.480469 72.125 C 33.355469 78.230469 31.082031 85.144531 29.167969 91.667969 L 18.75 91.667969 L 24.9375 72.125 Z M 35.480469 72.125 "/>
<path style=" stroke:none;fill-rule:nonzero;fill:rgb(16.862746%,78.823531%,42.352942%);fill-opacity:1;" d="M 85.417969 91.667969 L 75 91.667969 L 68.75 87.5 C 68.75 87.5 68.5 75.25 65.625 66.394531 C 65.605469 66.3125 65.5625 66.230469 65.542969 66.144531 L 77.332031 66.144531 Z M 85.417969 91.667969 "/>
<path style=" stroke:none;fill-rule:nonzero;fill:rgb(14.117648%,66.274512%,57.254905%);fill-opacity:1;" d="M 65.667969 40.292969 C 65.875 40.730469 66.082031 41.167969 66.292969 41.625 C 66.457031 42 66.644531 42.375 66.8125 42.75 C 68.042969 45.355469 69.3125 48.1875 70.644531 51.207031 L 70.644531 51.230469 C 70.667969 51.3125 70.8125 51.625 71.019531 52.105469 C 71.167969 52.4375 71.332031 52.832031 71.542969 53.292969 C 71.605469 53.417969 71.667969 53.582031 71.730469 53.730469 C 71.917969 54.125 72.105469 54.5625 72.3125 55.019531 C 72.417969 55.269531 72.519531 55.519531 72.644531 55.792969 C 73.394531 57.480469 74.230469 59.394531 75.019531 61.1875 C 75.269531 61.769531 75.519531 62.355469 75.769531 62.894531 C 75.917969 63.25 76.0625 63.582031 76.207031 63.894531 C 76.46875 64.488281 76.699219 65.003906 76.902344 65.460938 L 74.289062 64.417969 C 71.039062 63.082031 67.730469 61.835938 64.457031 60.671875 C 63.613281 58.542969 62.753906 56.355469 62.625 56.019531 C 62 54.457031 61.394531 52.957031 60.8125 51.519531 C 60.75 51.394531 60.707031 51.25 60.644531 51.125 C 60.019531 49.582031 59.417969 48.105469 58.832031 46.707031 C 58.707031 46.394531 58.5625 46.105469 58.4375 45.792969 C 58.230469 45.3125 58.042969 44.855469 57.855469 44.394531 C 57.542969 43.667969 57.25 42.980469 56.980469 42.3125 C 56.625 41.5 56.292969 40.730469 55.957031 39.980469 C 55.394531 38.707031 54.894531 37.5625 54.457031 36.5625 C 54.292969 36.167969 54.105469 35.792969 53.957031 35.4375 C 53.4375 34.292969 53.019531 33.375 52.6875 32.667969 Z M 65.667969 40.292969 "/>
<path style=" stroke:none;fill-rule:nonzero;fill:rgb(14.901961%,62.352943%,53.725493%);fill-opacity:1;" d="M 85.417969 91.667969 L 75 91.667969 C 72.375 82.707031 69.4375 74.042969 66.542969 66.207031 C 66.542969 66.207031 66.542969 66.1875 66.519531 66.144531 L 77.332031 66.144531 Z M 85.417969 91.667969 "/>
<path style=" stroke:none;fill-rule:nonzero;fill:rgb(15.686275%,58.823532%,45.09804%);fill-opacity:1;" d="M 71.519531 53.066406 L 70.8125 51.460938 L 69.109375 51.886719 C 60.695312 53.980469 44.691406 58.332031 29.878906 64.417969 L 27.277344 65.449219 L 26.9375 66.285156 C 25.542969 69.574219 24.238281 72.707031 23.039062 75.597656 L 25.519531 75 C 25.519531 75 38.542969 71.355469 75.261719 66.667969 L 77.273438 66.390625 C 75.449219 62.089844 73.5 57.554688 71.519531 53.066406 Z M 71.519531 53.066406 "/>
<path style=" stroke:none;fill-rule:nonzero;fill:rgb(14.117648%,66.274512%,57.254905%);fill-opacity:1;" d="M 38.5 40.292969 C 38.292969 40.730469 38.082031 41.167969 37.875 41.625 C 37.707031 42 37.519531 42.375 37.355469 42.75 C 36.125 45.355469 34.855469 48.1875 33.519531 51.207031 L 33.519531 51.230469 C 33.5 51.3125 33.355469 51.625 33.144531 52.105469 C 33 52.4375 32.832031 52.832031 32.625 53.292969 C 32.5625 53.417969 32.5 53.582031 32.4375 53.730469 C 32.25 54.125 32.0625 54.5625 31.855469 55.019531 C 31.75 55.269531 31.644531 55.519531 31.519531 55.792969 C 30.769531 57.480469 29.9375 59.394531 29.144531 61.1875 C 28.894531 61.769531 28.644531 62.355469 28.394531 62.894531 C 28.25 63.25 28.105469 63.582031 27.957031 63.894531 C 27.699219 64.488281 27.46875 65.003906 27.261719 65.460938 L 29.878906 64.417969 C 33.128906 63.082031 36.4375 61.835938 39.710938 60.671875 C 40.550781 58.542969 41.414062 56.355469 41.542969 56.019531 C 42.167969 54.457031 42.769531 52.957031 43.355469 51.519531 C 43.417969 51.394531 43.457031 51.25 43.519531 51.125 C 44.144531 49.582031 44.75 48.105469 45.332031 46.707031 C 45.457031 46.394531 45.605469 46.105469 45.730469 45.792969 C 45.9375 45.3125 46.125 44.855469 46.3125 44.394531 C 46.625 43.667969 46.917969 42.980469 47.1875 42.3125 C 47.542969 41.5 47.875 40.730469 48.207031 39.980469 C 48.769531 38.707031 49.269531 37.5625 49.707031 36.5625 C 49.875 36.167969 50.0625 35.792969 50.207031 35.4375 C 50.730469 34.292969 51.144531 33.375 51.480469 32.667969 Z M 38.5 40.292969 "/>
<path style=" stroke:none;fill-rule:nonzero;fill:rgb(14.901961%,62.352943%,53.725493%);fill-opacity:1;" d="M 33.144531 52.105469 C 33 52.4375 32.832031 52.832031 32.625 53.292969 C 32.5625 53.417969 32.5 53.582031 32.4375 53.730469 C 32.25 54.125 32.0625 54.5625 31.855469 55.019531 C 31.75 55.269531 31.625 55.519531 31.519531 55.792969 C 30.769531 57.480469 29.9375 59.394531 29.144531 61.1875 C 28.894531 61.769531 28.644531 62.355469 28.394531 62.894531 C 28.25 63.25 28.105469 63.582031 27.957031 63.894531 C 27.78125 64.300781 27.507812 64.9375 27.28125 65.449219 L 29.875 64.417969 C 33.128906 63.082031 36.433594 61.835938 39.707031 60.671875 C 40.550781 58.542969 41.410156 56.355469 41.539062 56.019531 C 42.164062 54.457031 42.769531 52.957031 43.351562 51.519531 C 43.414062 51.394531 43.457031 51.25 43.519531 51.125 C 44.144531 49.582031 44.746094 48.105469 45.332031 46.707031 C 45.457031 46.394531 45.601562 46.105469 45.726562 45.792969 C 45.933594 45.3125 46.121094 44.855469 46.308594 44.394531 Z M 33.144531 52.105469 "/>
<path style=" stroke:none;fill-rule:nonzero;fill:rgb(18.431373%,82.745099%,56.862748%);fill-opacity:1;" d="M 85.417969 91.667969 L 89.582031 89.582031 C 89.582031 89.582031 87.480469 78.5 82.980469 62.6875 C 78.542969 47.105469 71.8125 26.957031 62.5 8.332031 L 41.667969 8.332031 C 32.355469 26.957031 25.625 47.105469 21.1875 62.6875 C 16.6875 78.5 14.582031 89.582031 14.582031 89.582031 L 18.75 91.667969 C 18.75 91.667969 23.152344 80.570312 28.855469 67.101562 C 44.308594 60.558594 61.699219 55.878906 69.613281 53.90625 C 77.804688 72.46875 85.417969 91.667969 85.417969 91.667969 Z M 31.417969 61.101562 C 38.574219 44.480469 46.941406 26.292969 51.332031 21.144531 C 51.527344 20.917969 51.816406 20.832031 52.082031 20.832031 C 52.351562 20.832031 52.640625 20.917969 52.832031 21.144531 C 55.523438 24.292969 59.699219 32.332031 64.175781 41.902344 Z M 31.417969 61.101562 "/>
<path style=" stroke:none;fill-rule:nonzero;fill:rgb(20.784314%,89.803922%,32.156864%);fill-opacity:1;" d="M 56.25 8.332031 C 56.25 8.332031 71.730469 31.25 82.917969 62.5 C 82.9375 62.5625 82.957031 62.625 82.980469 62.6875 C 78.542969 47.105469 71.8125 26.957031 62.5 8.332031 Z M 56.25 8.332031 "/>
<path style=" stroke:none;fill-rule:nonzero;fill:rgb(16.862746%,78.823531%,42.352942%);fill-opacity:1;" d="M 47.917969 8.332031 C 47.917969 8.332031 32.4375 31.25 21.25 62.5 C 21.230469 62.5625 21.207031 62.625 21.1875 62.6875 C 25.625 47.105469 32.355469 26.957031 41.667969 8.332031 Z M 47.917969 8.332031 "/>
</g>
</svg>
